<svg viewBox="0 0 72 72" fill="none" xmlns="http://www.w3.org/2000/svg">
    <path fill-rule="evenodd" clip-rule="evenodd"
        d="M16.4433 46.8025C33.4615 46.8025 47.2574 32.957 47.2574 15.8778C47.2574 12.4428 46.6994 9.13869 45.6693 6.05166C45.1205 4.40697 46.5938 2.69636 48.1904 3.37255C60.4169 8.5509 68.9982 20.6946 68.9982 34.8497C68.9982 53.7104 53.7633 69 34.9701 69C20.6204 69 8.34527 60.0858 3.34277 47.4743C2.70311 45.8617 4.44875 44.4257 6.08196 45.0107C9.32002 46.1708 12.8082 46.8025 16.4433 46.8025Z"
        fill="url(#paint0_linear_2_21555)" />
    <path fill-rule="evenodd" clip-rule="evenodd"
        d="M69 15C70.6569 15 72 16.3431 72 18C72 19.6569 70.6569 21 69 21H36C34.3431 21 33 19.6569 33 18C33 16.3431 34.3431 15 36 15H69ZM3 39C1.34315 39 0 40.3431 0 42C0 43.6569 1.34315 45 3 45H36C37.6569 45 39 43.6569 39 42C39 40.3431 37.6569 39 36 39H3ZM45 42C45 40.3431 46.3431 39 48 39H57C58.6569 39 60 40.3431 60 42C60 43.6569 58.6569 45 57 45H48C46.3431 45 45 43.6569 45 42ZM24 15C25.6569 15 27 16.3431 27 18C27 19.6569 25.6569 21 24 21H15C13.3431 21 12 19.6569 12 18C12 16.3431 13.3431 15 15 15H24ZM0 54C0 52.3431 1.34315 51 3 51H57C58.6569 51 60 52.3431 60 54C60 55.6569 58.6569 57 57 57H3C1.34315 57 0 55.6569 0 54ZM15 27C13.3431 27 12 28.3431 12 30C12 31.6569 13.3431 33 15 33H69C70.6569 33 72 31.6569 72 30C72 28.3431 70.6569 27 69 27H15Z"
        fill="url(#paint2_linear_59_26715)" />
    <defs>
        <linearGradient id="paint0_linear_2_21555" x1="63.8836" y1="66.2269" x2="66.6719" y2="0.818446"
            gradientUnits="userSpaceOnUse">
            <stop stop-color="#EE7F18" />
            <stop offset="0.56298" stop-color="#EEB82E" />
            <stop offset="1" stop-color="#FEB649" stop-opacity="0.78" />
        </linearGradient>
        <linearGradient id="paint2_linear_59_26715" x1="43.0435" y1="57" x2="50.6004" y2="17.4094"
            gradientUnits="userSpaceOnUse">
            <stop stop-color="#DAC48C" />
            <stop offset="1" stop-color="#F8F3E2" />
        </linearGradient>
    </defs>
</svg>
